<svg width="73" height="73" viewBox="0 0 73 73" fill="none" xmlns="http://www.w3.org/2000/svg">
<g clip-path="url(#clip0_1_81)">
<path d="M6 24.5V59.087C6 59.087 19.863 58.571 36 66.5C52.137 58.571 66 59.087 66 59.087V24.5C66 24.5 49.638 24.5 36 31.913C22.362 24.5 6 24.5 6 24.5Z" fill="#23A6F0"/>
<path d="M36 24.5C40.9706 24.5 45 20.4706 45 15.5C45 10.5294 40.9706 6.5 36 6.5C31.0294 6.5 27 10.5294 27 15.5C27 20.4706 31.0294 24.5 36 24.5Z" fill="#23A6F0"/>
</g>
<defs>
<clipPath id="clip0_1_81">
<rect width="72" height="72" fill="white" transform="translate(0.5 0.5)"/>
</clipPath>
</defs>
</svg>
