<svg width="73" height="73" viewBox="0 0 73 73" fill="none" xmlns="http://www.w3.org/2000/svg">
<g clip-path="url(#clip0_1_89)">
<path d="M42.75 23H58.5V27.5H42.75V23Z" fill="#23A6F0"/>
<path d="M42.75 34.25H58.5V38.75H42.75V34.25Z" fill="#23A6F0"/>
<path d="M42.75 45.5H58.5V50H42.75V45.5Z" fill="#23A6F0"/>
<path d="M13.5 23H29.25V27.5H13.5V23Z" fill="#23A6F0"/>
<path d="M13.5 34.25H29.25V38.75H13.5V34.25Z" fill="#23A6F0"/>
<path d="M13.5 45.5H29.25V50H13.5V45.5Z" fill="#23A6F0"/>
<path d="M63 11.75H9C7.80689 11.7512 6.66299 12.2257 5.81934 13.0693C4.97568 13.913 4.50119 15.0569 4.5 16.25V56.75C4.50119 57.9431 4.97568 59.087 5.81934 59.9307C6.66299 60.7743 7.80689 61.2488 9 61.25H63C64.1931 61.2488 65.337 60.7743 66.1807 59.9307C67.0243 59.087 67.4988 57.9431 67.5 56.75V16.25C67.4988 15.0569 67.0243 13.913 66.1807 13.0693C65.337 12.2257 64.1931 11.7512 63 11.75ZM9 16.25H33.75V56.75H9V16.25ZM38.25 56.75V16.25H63V56.75H38.25Z" fill="#23A6F0"/>
</g>
<defs>
<clipPath id="clip0_1_89">
<rect width="72" height="72" fill="white" transform="translate(0.5 0.5)"/>
</clipPath>
</defs>
</svg>
